<svg width="50" height="50" viewBox="0 0 50 50" fill="none" xmlns="http://www.w3.org/2000/svg">
<path d="M25 0C11.2156 0 0 11.2156 0 25C0 32.3865 3.22292 39.0333 8.33333 43.6135V43.6312L8.69583 43.9437C8.75937 43.999 8.82917 44.0448 8.89375 44.099C9.93585 44.9777 11.0467 45.7716 12.2156 46.4729C12.3042 46.526 12.3948 46.576 12.4833 46.6271C13.0635 46.9646 13.6562 47.2823 14.2646 47.5729L14.2833 47.5812C15.5957 48.2052 16.9603 48.7127 18.3615 49.0979L18.4396 49.1198C19.1073 49.3021 19.7865 49.4552 20.475 49.5812L20.6677 49.6156C21.337 49.7338 22.0108 49.8249 22.6875 49.8885C22.7656 49.8958 22.8437 49.9 22.9208 49.9062C23.6073 49.9635 24.299 50 25 50C25.701 50 26.3927 49.9635 27.0792 49.9062C27.1573 49.9 27.2354 49.8958 27.3125 49.8885C27.9948 49.826 28.6677 49.7323 29.3323 49.6156L29.525 49.5812C30.2097 49.4565 30.8888 49.3025 31.5604 49.1198L31.6385 49.0979C33.0397 48.7127 34.4043 48.2052 35.7167 47.5812L35.7354 47.5729C36.3415 47.2815 36.9357 46.9659 37.5167 46.6271C37.6062 46.575 37.6958 46.526 37.7844 46.4729C38.3129 46.1559 38.8296 45.8196 39.3333 45.4646C39.4625 45.374 39.5917 45.2833 39.7198 45.1896C40.1948 44.8417 40.6573 44.4781 41.1063 44.099C41.1708 44.0448 41.2406 43.999 41.3042 43.9437L41.6667 43.6312V43.6135C46.7771 39.0323 50 32.3865 50 25C50 11.2156 38.7844 0 25 0ZM25 25C20.4052 25 16.6667 21.2615 16.6667 16.6667C16.6667 12.0719 20.4052 8.33333 25 8.33333C29.5948 8.33333 33.3333 12.0719 33.3333 16.6667C33.3333 21.2615 29.5948 25 25 25ZM28.125 27.0833C34.4427 27.0833 39.5833 32.224 39.5833 38.5417V42.6646C39.5396 42.701 39.4938 42.7344 39.45 42.7708C39.0385 43.1052 38.6167 43.4229 38.1854 43.7271C38.0896 43.7948 37.9958 43.8646 37.9 43.9302C37.4344 44.2479 36.9563 44.5458 36.4698 44.8281L36.2021 44.9823C33.9778 46.2355 31.5581 47.1046 29.0448 47.5531L28.8667 47.5854C28.2744 47.6866 27.6785 47.7648 27.0802 47.8198C26.9979 47.8271 26.9146 47.8323 26.8312 47.8385C26.224 47.8854 25.6135 47.9167 25 47.9167C24.3865 47.9167 23.776 47.8854 23.1687 47.8365L22.9198 47.8177C22.2614 47.7575 21.6059 47.6685 20.9552 47.551C19.0822 47.2139 17.2585 46.645 15.526 45.8573L15.3583 45.7812C14.7348 45.4907 14.1248 45.172 13.5302 44.826C13.0437 44.5448 12.5656 44.2458 12.1 43.9281C12.0031 43.8625 11.9094 43.7927 11.8146 43.725C11.3821 43.421 10.9603 43.1021 10.55 42.7687C10.5062 42.7333 10.4604 42.699 10.4167 42.6625V38.5417C10.4167 32.224 15.5573 27.0833 21.875 27.0833H28.125ZM41.6667 40.7042V38.5417C41.6667 32.0094 37.0167 26.5427 30.8542 25.276C32.2591 24.3219 33.4093 23.0386 34.2046 21.538C34.9998 20.0373 35.4159 18.365 35.4167 16.6667C35.4167 10.9229 30.7437 6.25 25 6.25C19.2562 6.25 14.5833 10.9229 14.5833 16.6667C14.5841 18.365 15.0002 20.0373 15.7954 21.538C16.5907 23.0386 17.7409 24.3219 19.1458 25.276C12.9833 26.5427 8.33333 32.0094 8.33333 38.5417V40.7042C4.4625 36.599 2.08333 31.074 2.08333 25C2.08333 12.3635 12.3635 2.08333 25 2.08333C37.6365 2.08333 47.9167 12.3635 47.9167 25C47.9167 31.074 45.5375 36.599 41.6667 40.7042Z" fill="#E7E7E7"/>
</svg>
